<?xml version="1.0" encoding="utf-8"?>
<!-- Generator: Adobe Illustrator 27.2.0, SVG Export Plug-In . SVG Version: 6.00 Build 0)  -->
<svg version="1.1" id="logo_youvape" xmlns="http://www.w3.org/2000/svg" xmlns:xlink="http://www.w3.org/1999/xlink" x="0px"
	 y="0px" viewBox="0 0 512 512" enable-background="new 0 0 512 512" xml:space="preserve">
<g>
	<circle fill="#135E84" cx="256" cy="256" r="256"/>
	<g>
		<path fill="#FFFFFF" d="M162.2,191.3c4.5,11.5,7.5,20.5,9.1,27l-0.2,42.9c0,1.3,0.4,2.3,1.1,3.1c0.7,0.8,1.7,1,2.9,0.7l12.4-3.1
			c2.3-0.6,3.5-2,3.6-4.3l0.2-42.5c9.4-22.4,17.1-44.5,23.2-66.3c0.4-1.7,0.3-3-0.4-3.9c-0.7-0.8-1.6-1.2-2.7-1l-12.6,2.5
			c-2.3,0.4-3.6,1.4-3.9,3c-2.1,11.9-6.3,26.6-12.5,44.1c-3.4-11.5-7.9-23.6-13.5-36.4c-0.7-1.5-1.4-2.4-2-2.7s-1.7-0.2-3.1,0.2
			l-11.6,3.5c-1.4,0.5-2.3,1.4-2.6,2.8c-0.4,1.4,0,2.9,1,4.4C154,171.2,157.8,179.8,162.2,191.3z"/>
		<path fill="#FFFFFF" d="M280.1,224.6c2-5,3.4-10.3,4.4-16.1c0.9-5.8,1.4-12,1.5-18.6c0-13.6-1-24.8-3.2-33.5
			c-1.7-6.8-3.8-12-6.3-15.8c-2.5-3.8-5.8-6.3-9.8-7.5c-2.2-0.6-4.7-1-7.6-0.9c-2.8,0-5.4,0.3-7.6,0.9c-5.8,1.5-10.8,4.9-15,10.4
			c-4.2,5.5-7.3,12.2-9.3,20c-2,7.9-3.1,16.6-3.1,26.1c-0.1,10.7,0.9,20,2.9,28.1c1.9,7.6,4.3,13.6,7.3,18.1c3,4.5,6.9,7.3,11.6,8.6
			c3.9,1.1,8.7,0.9,14.3-0.5c4.6-1.1,8.5-3.4,11.9-6.8C275.5,233.7,278.1,229.5,280.1,224.6z M262.7,217.3c-1,3.1-2,5.4-3,6.8
			c-1.1,1.4-2.4,2.3-4,2.7c-2.1,0.5-3.9-0.7-5.4-3.6c-1.5-2.9-2.7-7.3-3.5-13.2c-0.8-5.9-1.2-12.9-1.1-21
			c0.1-13.2,1.1-22.6,2.9-28.4c0.9-2.9,1.9-4.9,3-6c1.1-1.2,2.7-2,4.7-2.5c1.6-0.4,2.9,0.2,4.1,1.8c1.2,1.6,2.1,4.1,2.8,7.4
			c0.7,3.4,1.2,7.4,1.6,12c0.4,4.7,0.6,10,0.6,16.1C265.3,202,264.4,211.3,262.7,217.3z"/>
		<path fill="#FFFFFF" d="M350.2,218.8c3.3-2.6,5.9-5.5,7.8-8.7c1.9-3.3,3.4-7.2,4.5-11.9c1.1-4.7,1.9-9.2,2.2-13.6
			c0.3-4.4,0.5-9.5,0.6-15.2l0.2-60c0-1.3-0.4-2.3-1.2-3.1c-0.7-0.8-1.7-1-2.9-0.7l-11.8,2.9c-2.4,0.6-3.6,2-3.6,4.3l-0.3,63.2
			c0,7.8-0.4,13.9-1.2,18.5c-0.8,4.6-1.8,7.8-3.2,9.8c-1.4,2-3.2,3.2-5.5,3.8c-4.1,1-7-0.7-8.7-5.1c-1.7-4.4-2.4-11.5-2.3-21.4
			l0.1-62.2c0-1.3-0.4-2.3-1.2-3.1c-0.7-0.8-1.7-1-2.9-0.7l-12.9,3.2c-2.3,0.6-3.5,2-3.5,4.3l-0.5,62c-0.2,9.5,0.7,17.5,2.8,23.9
			s5.6,11.1,10.3,14c4.9,3.1,12,3.5,21.3,1.2C343,223.2,346.9,221.3,350.2,218.8z"/>
		<path fill="#FFFFFF" d="M186.5,271.1l-11.3,2.4c-2.7,0.4-4.3,1.8-4.8,4.3l-19.2,89.5l-14.3-79.9c-0.2-1.2-0.6-2.1-1.3-2.7
			c-0.7-0.6-1.7-0.7-3-0.4l-11.7,2.9c-2.7,0.7-3.9,2.1-3.6,4.3l18.2,95.7c0.4,2.3,1.3,4,2.7,4.9c1.4,1,2.9,1.1,4.6,0.6l16.6-4.3
			c1.5-0.4,2.8-1.2,4-2.6c1.2-1.4,2-3.1,2.5-5.1L191,275.6C191.3,271.9,189.8,270.4,186.5,271.1z"/>
		<path fill="#FFFFFF" d="M239.3,264.9c-0.4-2.3-1.3-4-2.7-4.9c-1.4-0.9-2.9-1.1-4.7-0.7l-16.6,4.3c-1.5,0.4-2.8,1.2-3.9,2.6
			c-1.2,1.3-2,3.1-2.5,5.2l-25.1,104.9c-0.4,1.6-0.2,2.8,0.6,3.7c0.8,0.9,2.1,1.2,3.9,0.8l11.3-2.4c2.7-0.5,4.3-1.9,4.8-4.3
			l6.2-28.5l22.9-5.7l4.5,24.6c0.5,2.6,1.9,3.6,4.3,3.1l11.7-2.9c2.7-0.7,3.9-2.1,3.5-4.2L239.3,264.9z M214.6,326.4l8.9-41.6
			l6.8,37.7L214.6,326.4z"/>
		<path fill="#FFFFFF" d="M313.3,243.8c-4.8-2.1-10.5-2.3-17-0.7l-8.7,2.2l-0.3,0.1l-12,3l-0.1,0c-2.2,0.6-3.4,2-3.4,4.2l-0.3,63.2
			c0,1.1,0,2.2,0,3.3l-0.2,36.6c0,1.3,0.4,2.3,1.1,3.1c0.6,0.6,1.4,0.9,2.3,0.8c0.2,0,0.4,0,0.6-0.1l12.3-3.1c2.4-0.6,3.5-2,3.6-4.3
			l0.2-41.4c4.8-1.3,9-2.6,12.5-4.1c3.5-1.5,6.2-3.1,8.2-4.7c2-1.7,3.4-3.1,4.4-4.2c0.9-1.1,1.9-2.4,2.8-4c0.1-0.2,0.2-0.4,0.3-0.5
			c0.1-0.1,0.2-0.2,0.2-0.4c2.1-3.3,3.6-8.7,4.3-16.2c0.8-7.5,0.4-14.2-1.1-20.2C321.3,250.1,318.1,245.9,313.3,243.8z M306.4,282.3
			c-0.9,5.4-4.2,9-9.8,10.7l-5.2,1.7l0.2-32.3c1-0.2,2.1-0.5,3.5-0.8c1.3-0.3,2.4-0.5,3.2-0.7c0.8-0.2,1.4-0.3,1.8-0.4
			c1.1-0.3,2.2-0.1,3.3,0.4c1.1,0.6,1.8,1.5,2.2,2.9c0.5,2,0.9,5.1,1.1,9.2C306.8,277,306.7,280.2,306.4,282.3z"/>
	</g>
	<g>
		<g>
			<polygon fill="#FFFFFF" points="469.4,310.9 488.7,306.1 488.7,306.1 469.4,310.9 			"/>
			<path fill="#FFFFFF" d="M256,18C124.6,18,18,124.6,18,256c0,131.4,106.6,238,238,238c107.2,0,197.8-70.9,227.6-168.3l-20.4,5.1
				c-1.3,3.7-2.8,7.3-4.3,11c-11.1,26.2-27,49.8-47.2,70c-20.2,20.2-43.8,36.1-70,47.2c-27.1,11.5-56,17.3-85.7,17.3
				c-29.7,0-58.6-5.8-85.7-17.3c-26.2-11.1-49.8-27-70-47.2C80,391.5,64.1,368,53,341.7c-11.5-27.1-17.3-56-17.3-85.7
				s5.8-58.6,17.3-85.7c11.1-26.2,27-49.8,47.2-70C120.5,80,144,64.1,170.3,53c27.1-11.5,56-17.3,85.7-17.3
				c29.7,0,58.6,5.8,85.7,17.3c26.2,11.1,49.8,27,70,47.2c20.2,20.2,36.1,43.8,47.2,70c11.5,27.1,17.3,56,17.3,85.7
				c0,12-1,23.9-2.9,35.6l-115.4,28.8l0.1-32.8l25.5-6.4c1-0.3,1.9-0.9,2.7-1.9c0.7-1,1.1-2.1,1-3.2l-0.3-9
				c-0.1-3.3-1.5-4.6-4.2-3.9l-24.6,6.1l0.1-23.5l27.5-6.9c1.1-0.3,2-0.9,2.8-2c0.8-1.1,1.2-2.1,1.1-3.3l-0.3-9
				c-0.1-3.3-1.6-4.6-4.5-3.8l-30.6,7.6l-0.6,0.1l-11.7,2.9l-0.1,0c-2,0.5-3.2,1.6-3.5,3.3l0,15.8l-0.4,82.4l0,0l0,0l0,5.8
				c0,1.3,0.4,2.3,1.1,3.1c0.6,0.6,1.3,0.8,2.1,0.8c0.2,0,0.5,0,0.7-0.1l3.8-0.9l8.5-2.1l32-8c0.2-0.1,0.4-0.1,0.6-0.2l82.4-20.5
				l19.3-4.8c0.6-2.8,1.1-5.6,1.6-8.4c2.4-13.5,3.7-27.5,3.7-41.7C494,124.6,387.4,18,256,18z"/>
		</g>
	</g>
</g>
</svg>
