<?xml version="1.0" encoding="UTF-8"?>
<svg id="logo_youvape" xmlns="http://www.w3.org/2000/svg" version="1.1" viewBox="0 0 333.673 333.673">
  <!-- Generator: Adobe Illustrator 30.1.0, SVG Export Plug-In . SVG Version: 2.1.1 Build 136)  -->
  <path id="cercle" d="M166.837,19c39.489,0,76.614,15.378,104.536,43.3,27.923,27.923,43.3,65.048,43.3,104.536s-15.378,76.614-43.3,104.536c-27.923,27.923-65.048,43.3-104.536,43.3s-76.614-15.378-104.536-43.3c-27.923-27.923-43.3-65.048-43.3-104.536s15.378-76.614,43.3-104.536c27.923-27.923,65.048-43.3,104.536-43.3M166.837,0C74.695,0,0,74.695,0,166.837s74.695,166.837,166.837,166.837,166.837-74.695,166.837-166.837S258.978,0,166.837,0h0Z" fill="#135e84"/>
  <path id="virgule" d="M264.489,231.816c-5.712,1.402-11.58,2.406-17.571,2.99-.343.033-.65.218-.841.504-4.021,6.052-8.671,11.751-13.927,17.006-10.917,10.917-23.734,19.24-37.702,24.674-.351.137-.324.644.042.735,7.328,1.823,14.913,2.993,22.689,3.453,1.445.086,2.89-.287,4.113-1.063,18.448-11.698,33.611-28.11,43.794-47.544.211-.403-.155-.865-.596-.756Z" fill="#135e84"/>
  <path id="E" d="M267.284,214.134l-33.539,5.092c-.501.076-.953-.312-.953-.819v-71.186c0-.63.461-1.166,1.083-1.26l33.329-5.047c.404-.061.768.252.768.66v13.331c0,.365-.266.675-.626.731l-19.04,2.953c-.406.063-.706.413-.706.824v12.772c0,.343.302.607.641.562l16.229-2.155c.365-.048.689.235.689.603v13.263c0,.39-.284.722-.669.783l-16.294,2.572c-.343.054-.596.35-.596.697v13.911c0,.345.307.61.648.559l18.903-2.816c.432-.064.82.27.82.707v12.463c0,.401-.293.741-.689.801Z" fill="#135e84"/>
  <g id="P">
    <path d="M203.556,150.55l-20.582,3.105c-.867.131-1.509.876-1.509,1.753v69.971c0,.907.806,1.601,1.703,1.467l11.601-1.741c.872-.131,1.517-.88,1.517-1.761v-21.985c0-.814.623-1.489,1.435-1.543,5.967-.398,28.5-3.498,28.5-27.643,0-25.042-22.665-21.623-22.665-21.623ZM196.407,184.524v-16.382c0-.806.532-1.512,1.308-1.729,3.696-1.032,13.951-2.965,13.951,7.34,0,10.459-9.839,12.017-13.716,12.224-.838.045-1.543-.614-1.543-1.453Z" fill="#135e84"/>
  </g>
  <g id="A">
    <path d="M155.25,157.834l-13.397,2.021c-.737.111-1.338.648-1.532,1.367l-19.761,73.209c-.248.918.528,1.788,1.468,1.646l11.619-1.753c.889-.134,1.608-.795,1.815-1.671l2.681-11.31c.194-.818.866-1.435,1.697-1.558l17.846-2.65c.7-.104,1.369.326,1.566,1.006l2.966,10.269c.254.88,1.12,1.435,2.026,1.298l11.116-1.677c.916-.138,1.5-1.051,1.243-1.941l-19.398-67.005c-.246-.848-1.081-1.384-1.955-1.252ZM142.162,204.152l5.954-22.851c.153-.587.985-.588,1.14-.002l5.464,20.668c.242.915-.364,1.837-1.3,1.978l-10.081,1.515c-.748.112-1.367-.576-1.176-1.308Z" fill="#135e84"/>
  </g>
  <path id="V" d="M71.414,170.589l11.988-1.898c.813-.129,1.591.384,1.792,1.183l11.895,47.147c.175.695,1.166.686,1.329-.011l11.975-51.172c.18-.771.813-1.355,1.596-1.473l11.9-1.795c.908-.137,1.662.696,1.435,1.586l-18.543,72.862c-.219.86-.931,1.505-1.809,1.637l-14.035,2.117c-.749.113-1.465-.348-1.672-1.076l-19.107-67.14c-.256-.899.332-1.82,1.255-1.966Z" fill="#135e84"/>
  <path id="U" d="M196.595,67.539c-.835.125-1.453.842-1.453,1.687v48.653s0,21.172,24.506,17.475c23.868-3.601,22.484-26.492,22.484-26.492l.022-46.468c0-.896-.792-1.585-1.679-1.459l-12.655,1.792c-.813.115-1.417.811-1.417,1.632v46.245s.505,8.563-7.434,9.81c-7.637,1.199-7.981-4.78-7.981-4.78l-.242-48.639c-.004-.829-.742-1.462-1.563-1.339l-12.587,1.883Z" fill="#135e84"/>
  <g id="O">
    <path d="M161.493,71.926c-6.371.206-32.541,6.325-32.541,40.844,0,35.315,20.653,33.479,31.211,31.816,5.505-.867,28.386-4.815,28.231-42.226-.132-31.931-20.243-30.649-26.901-30.434ZM156.852,130.827c-4.832.095-11.473-1.386-11.971-19.786-.583-21.504,11.306-24.275,14.812-24.262,3.758.015,13.62-1.122,13.149,18.435-.527,21.86-7.51,25.446-15.99,25.613Z" fill="#135e84"/>
  </g>
  <path id="Y" d="M75.971,86.823l20.182,38.858c.116.222.176.469.176.72v25.843c0,.792.705,1.399,1.489,1.281l12.049-1.818c.749-.113,1.303-.757,1.303-1.515v-25.709c0-.33.065-.658.192-.963l18.583-44.844c.251-.606-.256-1.254-.904-1.156l-13.556,2.045c-.531.08-.983.431-1.192.926l-10.579,25.056c-.234.554-1.009.578-1.278.041l-10.707-21.397c-.289-.577-.917-.903-1.555-.807l-13.486,2.035c-.657.099-1.021.815-.715,1.404Z" fill="#135e84"/>
</svg>